# xmcd CD database file
#
# Track frame offsets:
#	150
#	11637
#	22727
#	34335
#	48125
#	67195
#	91682
#	110762
#	132127
#	155412
#	167822
#	182380
#	192910
#	202847
#	215272
#	230332
#	254372
#	273080
#	287830
#	302067
#	318467
#
# Disc length: 4441 seconds
#
# Revision: 0
# Processed by: cddbd v1.5.1PL0 Copyright (c) Steve Scherf et al.
# Submitted via: CDex 1.51
#
DISCID=19115715
DTITLE=Sonoton Authentic Series - SAS 202 - Asia Today 2 - Vocal
DYEAR=1995
DGENRE=Contentum
TTITLE0=China - Never ending dreams
TTITLE1=China - Hard life
TTITLE2=China - Utopia
TTITLE3=Thailand - Puenthai
TTITLE4=Thailand - Tuanjai
TTITLE5=India - Longing for love
TTITLE6=India - Heart, sweet heart
TTITLE7=India - Annai Mozhi
TTITLE8=India - Nadu Jamam
TTITLE9=Japan - Beautiful Okinawa 1
TTITLE10=Japan - Kyoto sanzen in
TTITLE11=Japan - Fireman of Eden
TTITLE12=Japan - Sakura
TTITLE13=Japan - Beautiful Okinawa 2
TTITLE14=Japan - Tokyo night
TTITLE15=Indonesia - Biru putih cintaku
TTITLE16=Indonesia - Kembang wangi
TTITLE17=Malaysia - Journey of life
TTITLE18=Malaysia - Be kind to me
TTITLE19=Malaysia - Begawan solo
TTITLE20=Malaysia - Happy heart
EXTD=YEAR: 1995
EXTT0=
EXTT1=
EXTT2=
EXTT3=
EXTT4=
EXTT5=
EXTT6=
EXTT7=
EXTT8=
EXTT9=
EXTT10=
EXTT11=
EXTT12=
EXTT13=
EXTT14=
EXTT15=
EXTT16=
EXTT17=
EXTT18=
EXTT19=
EXTT20=
PLAYORDER=
